<?xml version="1.0" encoding="utf-8"?>
<!-- Generator: Adobe Illustrator 18.0.0, SVG Export Plug-In . SVG Version: 6.00 Build 0)  -->
<!DOCTYPE svg PUBLIC "-//W3C//DTD SVG 1.1//EN" "http://www.w3.org/Graphics/SVG/1.1/DTD/svg11.dtd">
<svg version="1.1" id="Layer_1" xmlns="http://www.w3.org/2000/svg" xmlns:xlink="http://www.w3.org/1999/xlink" x="0px" y="0px"
	 viewBox="0 0 547 160" enable-background="new 0 0 547 160" xml:space="preserve">
<title>PlayMe</title>
<desc>Created with Sketch.</desc>
<g id="Page-1_2_">
	<g id="PlayMe">
		<path id="Play-Me" fill="#4A4A4A" d="M305.5,79.9c0,4.1-1.3,7.4-4,9.7c-2.7,2.3-6.4,3.4-11.1,3.4h-8v14h-8.7V66.8h16.7
			c4.8,0,8.5,1.1,11.2,3.4C304.2,72.5,305.5,75.7,305.5,79.9z M289.9,74h-7.5v11.8h7.5c2.3,0,4-0.5,5.2-1.5c1.2-1,1.8-2.5,1.8-4.3
			c0-1.9-0.6-3.3-1.8-4.3C293.9,74.5,292.2,74,289.9,74z M309.7,64.4h8.5V107h-8.5V64.4z M352.5,101v5.8c-1.2,0.3-2.4,0.5-3.5,0.6
			c-1.1,0-2.1-0.1-3.1-0.4c-2-0.7-3.2-1.9-3.7-3.7c-1,1.3-2.3,2.4-3.9,3.2s-3.3,1.2-5.2,1.2c-2.9,0-5.2-0.8-7-2.4s-2.7-3.6-2.7-6.1
			c0-2.8,1.1-4.9,3.2-6.6c2.1-1.6,5.3-2.6,9.5-3l5.4-0.6V88c0-1.5-0.4-2.6-1.1-3.4c-0.8-0.8-1.9-1.2-3.3-1.2s-2.6,0.4-3.6,1.3
			s-1.6,2-1.8,3.4l-7.7-2c0.7-2.7,2.2-4.9,4.7-6.6c2.4-1.7,5.3-2.6,8.7-2.6c3.8,0,6.9,1,9,2.9c2.2,1.9,3.2,4.6,3.2,8.1V99
			c0,0.9,0.3,1.5,0.8,1.9c0.3,0.2,0.6,0.3,1,0.3C351.7,101.2,352.1,101.2,352.5,101z M335.4,101.5c1.8,0,3.2-0.5,4.3-1.5
			s1.7-2.4,1.7-4v-1.8l-4.1,0.5c-2.2,0.3-3.8,0.7-4.6,1.2c-0.8,0.5-1.2,1.4-1.2,2.4c0,1,0.3,1.8,1,2.4
			C333.2,101.2,334.2,101.5,335.4,101.5z M383,77.5l-11.9,30.9c-1.3,3.5-2.9,6-4.7,7.4c-1.8,1.5-4,2.2-6.7,2.2c-1,0-2.1-0.2-3.2-0.5
			c-1.1-0.4-1.9-0.8-2.5-1.3l1.7-5.9c0.4,0.4,1,0.8,1.5,1.1c0.6,0.3,1.1,0.4,1.7,0.4c1,0,1.9-0.3,2.6-0.9c0.7-0.6,1.3-1.6,1.8-3.1
			l0.8-2.2l-10.9-28.1h8.7l6.4,18.8l6.4-18.8H383z M432.2,78.7l-9.7,28.3h-5.9l-9.8-28.3V107h-8.2V66.8H410l9.6,28.3l9.6-28.3h11.1
			V107h-8.2V78.7z M466.3,96.7l7,2.4c-1,2.7-2.6,4.7-5,6.3c-2.4,1.5-5.1,2.3-8.1,2.3c-4.3,0-7.8-1.4-10.6-4.3
			c-2.7-2.8-4.1-6.5-4.1-11.1c0-4.4,1.4-8.1,4.1-11c2.7-2.9,6.2-4.4,10.3-4.4c4.1,0,7.4,1.3,9.8,3.9c2.4,2.6,3.6,6.1,3.6,10.5v2.8
			h-19.7c0.3,2.1,1,3.8,2.2,5c1.2,1.2,2.6,1.8,4.3,1.8c1.4,0,2.7-0.4,3.7-1.1C465.1,99.1,465.8,98,466.3,96.7z M459.9,83.4
			c-1.5,0-2.8,0.5-3.8,1.5s-1.7,2.3-2.2,4.1h11.3c0-1.6-0.6-2.9-1.5-4C462.7,83.9,461.5,83.4,459.9,83.4z"/>
		<g id="Page-1" transform="translate(-193.000000, -27.000000)">
			<path id="Fill-1" fill="#4A4A4A" d="M700.6,109.8L700.6,109.8L700.6,109.8l9.8-26.9l0,0l0.2-0.5l-21.8-5l-1.1,3.2l-7.5,20.8
				c-0.7-1.4-2.1-2.7-3.8-3.3c-3.3-1.2-6.7,0.1-7.7,2.8c-1,2.7,0.9,5.9,4.1,7.1c3.2,1.2,6.6,0.2,7.7-2.7l-0.1,0l0-0.1l0,0l0,0
				l8.8-24.2l18.7,4.2l-7.5,20.9c-0.7-1.4-2.1-2.7-3.8-3.3c-3.3-1.2-6.7,0.1-7.7,2.8c-1,2.7,0.9,5.9,4.1,7.1
				c3.2,1.2,6.6,0.2,7.7-2.7L700.6,109.8L700.6,109.8z"/>
			<g id="Group-5" transform="translate(0.000000, 0.671000)">
				<path id="Fill-3" fill="#4A4A4A" d="M437.8,136.5l0.2,1.7l-20.5,5.3l-0.2-1.5L437.8,136.5z M440.6,103.2
					c-3.8,0.5-6.6,3.4-6.2,6.5l-0.2,0l0,0.1l0,0c0,0,0.1,0,0.1,0l3.2,24.7L417,140l-2.7-21c1.4,1.1,3.4,1.6,5.5,1.3
					c3.8-0.5,6.6-3.4,6.2-6.6c-0.4-3.2-3.8-5.4-7.6-4.9c-3.8,0.5-6.5,3.4-6.2,6.5l-0.2,0l0,0.1l0,0c0,0,0.1-0.1,0.1-0.1l4.1,31.5
					l0,0l0.1,0.6l24-6l-0.5-3.7l-3.1-24.3c1.4,1.1,3.4,1.6,5.5,1.3c3.8-0.5,6.6-3.4,6.2-6.6C447.9,104.9,444.4,102.7,440.6,103.2
					L440.6,103.2z"/>
			</g>
		</g>
		<g id="Page-1_1_" transform="translate(16.000000, 40.000000)">
			<g id="Group-9" transform="translate(0.000000, 4.882000)">
				<path id="Fill-1_1_" fill="#138FE2" d="M129.8,68c-6.2-1-12.5-1-18.7,0l-0.3,0.1c-6.3,1.1-12.3,3.1-18,6.1
					c-10,4.5-3.1,15.9,4.8,11.4c9.2-5.3,19.3-8.7,30.6-8.1C135.5,78.1,135.9,68.9,129.8,68"/>
				<path id="Fill-3_1_" fill="#138FE2" d="M8.4,84.6c4.2-4.7,7.7-9.9,10.2-15.6l0.1-0.3c2.6-5.8,4.2-12,4.8-18.4
					c1.7-10.9-11.6-11.3-12.2-2.3c-0.6,10.7-3.3,20.9-10,30C-3.1,83.9,4.4,89.3,8.4,84.6"/>
				<path id="Fill-5" fill="#F9AF2C" d="M197.8,26.5c-0.1,0-0.1,0-0.2,0c0,0-1-0.2-2.6-0.6c-1.7-0.4-4.1-0.9-7-1.4
					c-1.5-0.3-3-0.6-4.7-0.8c-1.7-0.3-3.5-0.5-5.3-0.8c-1.8-0.2-3.8-0.5-5.7-0.7c-1.9-0.2-3.9-0.4-5.9-0.5c-2-0.1-4-0.2-6-0.3
					c-2-0.1-3.9-0.1-5.8-0.1c-0.1,0-0.3,0-0.4,0c0.8,2.7,1.1,5.7,0.7,8.6c0.1,0,0.1,0,0.2,0c1.8-0.1,3.6-0.2,5.5-0.3
					c1.9-0.1,3.8-0.1,5.6-0.1c1.9,0,3.8,0,5.7,0.1c1.9,0.1,3.7,0.2,5.5,0.3c1.8,0.1,3.5,0.3,5.1,0.5c1.6,0.2,3.2,0.3,4.6,0.5
					c2.8,0.4,5.2,0.7,6.9,1c1.7,0.3,2.6,0.4,2.6,0.4l0.1,0c1.6,0.3,3.1-0.7,3.5-2.3C200.3,28.5,199.3,26.9,197.8,26.5"/>
				<path id="Fill-7" fill="#138FE2" d="M154.1,21.2c-1.9-6.3-7-11.6-14.4-14C111.5-1.6,73.9-3,49.5,8
					c-10.1,4.5-18.6,12.9-21.9,24.4c-5.8,20.1,5.8,41,25.8,46.8c12.7,3.7,25.7,0.5,35.1-7.6c12-10.4,21.7-21.8,46.6-24
					c10-0.9,16.5-6.2,19-14.8c0.3-1,0.5-2,0.6-3C155.2,26.9,154.9,23.9,154.1,21.2"/>
			</g>
			<g id="Group-12" transform="translate(26.000000, 4.882000)">
				<g id="Clip-11">
				</g>
				<defs>
					<filter id="Adobe_OpacityMaskFilter" filterUnits="userSpaceOnUse" x="-1.5" y="-3.9" width="140.8" height="85.8">
						<feColorMatrix  type="matrix" values="1 0 0 0 0  0 1 0 0 0  0 0 1 0 0  0 0 0 1 0"/>
					</filter>
				</defs>
				<mask maskUnits="userSpaceOnUse" x="-1.5" y="-3.9" width="140.8" height="85.8" id="mask-2">
					<g filter="url(#Adobe_OpacityMaskFilter)">
						<path id="path-1" fill="#FFFFFF" d="M93.8,50.6c-14.3,4.6-22.1,13.1-31.3,21c-9.4,8.1-22.4,11.3-35.1,7.6
							C7.3,73.4-4.2,52.5,1.6,32.4C4.9,20.9,13.3,12.5,23.5,8c12-5.4,27.2-7.8,43-7.8c16.2,0,33,2.6,47.3,7.1
							c7.4,2.3,12.5,7.6,14.4,14c0.8,2.7,1.1,5.6,0.7,8.6c-0.1,1-0.3,2-0.6,3c-1.4,4.8-4,8.6-7.8,11.1c-0.8,0.1-1.6,0.2-2.5,0.3
							C107.6,45.6,99.9,47.8,93.8,50.6L93.8,50.6z"/>
					</g>
				</mask>
				<path id="Fill-10" mask="url(#mask-2)" fill="none" d="M24,4.4C12.9,9.2,3.7,18.2,0.1,30.5l0,0c-6.3,21.4,6.3,43.8,28.2,50l0,0
					c13.9,3.9,27.3-0.5,37.8-8.8l0,0c14-11.2,20.9-23.5,51.8-27.3l0,0c10.9-1.4,17.7-4.2,20.4-13.4l0,0c0.3-1.1,0.5-2.1,0.7-3.2l0,0
					c0.5-3.2,0.2-6.3-0.7-9.2l0,0c-2.1-6.8-7.7-12.4-15.7-14.9l0,0c-15.6-4.8-34-7.5-51.7-7.5l0,0C53.7-3.9,37.1-1.3,24,4.4"/>
			</g>
			<g id="Group-19" transform="translate(123.000000, 0.882000)">
				<path id="Fill-13" fill="#FFFFFF" d="M23.1,34.3c-1.7,6-8.1,9.5-14.1,7.8C2.9,40.3-0.6,34,1.2,28c1.7-6,8.1-9.5,14.1-7.8
					C21.3,21.9,24.8,28.3,23.1,34.3"/>
				<path id="Fill-15" fill="#333333" d="M20,28.2c0,0.1,0,0.2,0,0.3c0,1.6-1.3,2.9-2.9,2.9c-1.6,0-2.9-1.3-2.9-2.9
					c0-1.5,1.2-2.8,2.7-2.9c-0.1,0-0.2-0.1-0.4-0.1c-3.1-0.9-6.4,0.9-7.3,4c-0.9,3.1,0.9,6.4,4,7.3c3.1,0.9,6.4-0.9,7.3-4
					C21,31.2,20.8,29.5,20,28.2"/>
				<path id="Fill-17" fill="#138FE2" d="M37,1c-0.3-0.1-0.7-0.1-0.9,0.2c-0.2,0.3-0.2,0.7,0.2,0.9c6.1,3.7,7.3,13.1,0,16.4
					c0-0.1,0-0.2,0.1-0.3c0.1-0.8,0.2-1.6,0.2-2.5c0-1-0.1-1.9-0.4-2.9c-0.2-0.9-0.6-1.9-1.1-3c-1-1.9-2.5-3.7-4.4-5.1
					C29.9,4.2,29,3.6,27.8,3c-1.1-0.6-2.2-1-3-1.3c-1.1-0.4-2.1-0.6-2.9-0.7c-0.8-0.2-1.7-0.2-2.7-0.3c-0.8,0-1.5,0-2.3,0.1
					c-0.7,0.1-1.3,0.2-1.8,0.3c-0.4,0.1-0.6,0.1-0.8,0.2c-0.1,0-0.2,0-0.3,0.1l-0.4,0.1c-0.4,0.1-0.6,0.5-0.6,0.9
					c0,0.2,0.2,0.4,0.3,0.5c0.2,0.1,0.4,0.2,0.6,0.1l0.4-0.1c0.1,0,0.2,0,0.3-0.1c0.2,0,0.5-0.1,0.8-0.1c0.4-0.1,0.9-0.1,1.6-0.2
					c0.7,0,1.4,0,2.1,0c0.9,0.1,1.7,0.2,2.4,0.4c0.8,0.2,1.6,0.4,2.6,0.8C24.8,4,25.8,4.4,26.7,5c1,0.6,1.8,1.2,2.4,1.7
					c1.5,1.3,2.7,2.9,3.4,4.5c0.4,0.9,0.7,1.7,0.8,2.4c0.1,0.7,0.2,1.5,0.2,2.2c0,0.6-0.1,1.3-0.2,1.9c-0.1,0.5-0.3,1-0.4,1.4
					c-0.1,0.2-0.2,0.5-0.3,0.6c0,0.1-0.1,0.2-0.1,0.3l-0.2,0.4c0,0,0,0,0,0.1c0,0,0,0,0,0c0,0.1,0,0.1-0.1,0.3c0,0,0,0,0,0.1
					c0,0.1,0,0.2,0,0.3c0,0.2,0,0.3,0.1,0.4c0.2,0.7,0.9,1.2,1.6,1.2c0.2,0,0.4,0,0.5-0.1C47.7,18.5,44.6,4.3,37,1"/>
			</g>
		</g>
	</g>
</g>
</svg>
