<?xml version="1.0" encoding="UTF-8" standalone="no"?>
<svg xmlns="http://www.w3.org/2000/svg" height="160px" width="547px" version="1.1" xmlns:xlink="http://www.w3.org/1999/xlink" viewBox="0 0 547 160"><!-- Generator: Sketch 41.2 (35397) - http://www.bohemiancoding.com/sketch -->
 <title>PlayMe_v02</title>
 <desc>Created with Sketch.</desc>
 <defs>
  <path id="path-1" d="m75.158 40.686c-11.452 3.67-17.707 10.519-25.081 16.911-7.533 6.532-17.951 9.087-28.129 6.131-16.074-4.666-25.335-21.533-20.689-37.673 2.6619-9.247 9.409-16.018 17.531-19.658 9.625-4.3145 21.812-6.2474 34.403-6.2474 13.001 0.00001 26.436 2.0624 37.913 5.69 5.898 1.8644 9.974 6.1204 11.514 11.222 0.66 2.193 0.86 4.544 0.53 6.928-0.11 0.794-0.28 1.593-0.51 2.39-1.11 3.871-3.211 6.905-6.238 8.958-0.641 0.101-1.302 0.193-1.982 0.278-8.253 1.028-14.365 2.813-19.262 5.07z"/>
 </defs>
 <g id="Page-1" fill-rule="evenodd" fill="none">
  <g id="PlayMe_v02">
   <path id="Play-Me" fill="#4A4A4A" d="m299.54 79.896c0 4.144-1.33 7.364-3.98 9.66s-6.37 3.444-11.14 3.444h-8.01v14h-8.68v-40.208h16.69c4.81 0 8.54 1.139 11.17 3.416s3.95 5.507 3.95 9.688zm-15.63-5.88h-7.5v11.76h7.5c2.28 0 4.02-0.513 5.24-1.54 1.21-1.027 1.82-2.473 1.82-4.34s-0.61-3.313-1.82-4.34c-1.22-1.027-2.96-1.54-5.24-1.54zm19.83-9.576h8.51v42.56h-8.51v-42.56zm42.72 36.57v5.77c-1.23 0.33-2.4 0.52-3.52 0.56-1.09 0-2.13-0.15-3.14-0.45-1.98-0.67-3.21-1.91-3.7-3.7-1 1.35-2.3 2.41-3.89 3.19-1.58 0.79-3.31 1.18-5.18 1.18-2.87 0-5.22-0.79-7.03-2.38s-2.71-3.63-2.71-6.132c0-2.763 1.07-4.947 3.22-6.552 2.14-1.605 5.33-2.613 9.55-3.024l5.37-0.616v-0.84c0-1.456-0.38-2.585-1.15-3.388-0.76-0.803-1.85-1.204-3.27-1.204s-2.62 0.42-3.59 1.26-1.56 1.988-1.79 3.444l-7.67-2.016c0.67-2.688 2.23-4.891 4.68-6.608 2.44-1.717 5.34-2.576 8.7-2.576 3.85 0 6.85 0.971 9.02 2.912s3.25 4.648 3.25 8.12v11.088c0 0.896 0.26 1.532 0.78 1.902 0.26 0.19 0.6 0.28 1.01 0.28 0.3 0 0.65-0.07 1.06-0.22zm-17.08 0.45c1.76 0 3.21-0.52 4.34-1.544 1.14-1.027 1.71-2.361 1.71-4.004v-1.848l-4.14 0.504c-2.24 0.261-3.77 0.663-4.59 1.204-0.83 0.541-1.24 1.353-1.24 2.436 0 1.008 0.35 1.802 1.04 2.382s1.65 0.87 2.88 0.87zm47.66-23.916l-11.93 30.916c-1.34 3.47-2.91 5.95-4.7 7.44-1.79 1.5-4.02 2.24-6.67 2.24-1.04 0-2.1-0.17-3.16-0.53-1.06-0.35-1.89-0.79-2.49-1.31l1.68-5.94c0.45 0.45 0.95 0.8 1.51 1.06 0.56 0.27 1.12 0.4 1.68 0.4 1.05 0 1.9-0.29 2.58-0.87 0.67-0.58 1.27-1.62 1.79-3.11l0.84-2.18-10.87-28.116h8.68l6.44 18.76 6.39-18.76h8.23zm49.17 1.176l-9.75 28.28h-5.88l-9.8-28.28v28.28h-8.17v-40.208h11.42l9.58 28.336 9.63-28.336h11.14v40.208h-8.17v-28.28zm34.05 17.976l7 2.352c-0.97 2.652-2.64 4.742-4.99 6.272s-5.06 2.3-8.12 2.3c-4.33 0-7.85-1.42-10.55-4.26-2.71-2.84-4.06-6.533-4.06-11.088 0-4.405 1.37-8.064 4.11-10.976 2.75-2.912 6.19-4.368 10.33-4.368 4.11 0 7.38 1.316 9.8 3.948 2.43 2.632 3.64 6.132 3.64 10.5v2.8h-19.65c0.3 2.128 1.03 3.799 2.21 5.012 1.18 1.212 2.62 1.822 4.34 1.822 1.42 0 2.66-0.38 3.72-1.15 1.07-0.765 1.81-1.82 2.22-3.164zm-6.33-13.328c-1.5 0-2.76 0.485-3.78 1.456-1.03 0.971-1.75 2.333-2.16 4.088h11.26c-0.04-1.605-0.55-2.931-1.54-3.976s-2.25-1.568-3.78-1.568z"/>
   <g id="Page-1" fill="#4A4A4A" transform="translate(-193 -27)">
    <path id="Fill-1" transform="translate(699.75 94.062) rotate(20) translate(-699.75 -94.062)" d="m716.21 104.77v-0.01-0.01l0.04-28.659-0.01-0.529-22.17 2.729 0.04 3.431 0.1 22.118c-1.15-1.11-2.85-1.81-4.75-1.81-3.49 0-6.31 2.36-6.31 5.27 0 2.9 2.82 5.26 6.31 5.26 3.46 0 6.26-2.08 6.31-5.18h-0.13v-0.08-0.01-0.01l-0.03-25.759 19.04-2.474 0.12 22.243c-1.16-1.1-2.85-1.797-4.74-1.797-3.49 0-6.31 2.357-6.31 5.267 0 2.9 2.83 5.26 6.32 5.26 3.45 0 6.26-2.08 6.31-5.18h-0.14v-0.07z"/>
    <g id="Group-5" transform="translate(0 0.671)">
     <path id="Fill-3" transform="translate(420.68 127.91) rotate(-7) translate(-420.68 -127.91)" d="m425.3 140.11l0.01 1.69-21.04 2.74v-1.55l21.03-2.88zm6.89-32.68c-3.82 0-6.92 2.58-6.99 5.7h-0.25v0.13 0.01c0 0.01 0.13 0.01 0.13 0.02l0.15 24.93-21 2.88-0.09-21.18c1.28 1.22 3.17 1.99 5.27 1.99 3.86 0 6.99-2.61 6.99-5.83s-3.13-5.84-6.99-5.84c-3.81 0-6.91 2.58-6.98 5.7h-0.25v0.13 0.01c0 0.01 0.12-0.05 0.12-0.05l0.24 31.74 0.01 0.63 24.54-3.02-0.04-3.77-0.12-24.51c1.28 1.22 3.16 2 5.26 2 3.86 0 6.99-2.62 6.99-5.84 0-3.21-3.13-5.83-6.99-5.83z"/>
    </g>
   </g>
   <g id="Page-1" transform="translate(6 49)">
    <g id="Group-9" transform="translate(0 3.9268)">
     <path id="Fill-1" fill="#138FE2" d="m103.97 54.73c-4.97-0.783-10.005-0.773-14.967 0.031l-0.256 0.043c-5.04 0.845-9.888 2.49-14.41 4.891-8.019 3.648-2.448 12.815 3.836 9.199 7.401-4.299 15.432-6.958 24.477-6.511 5.91 0.436 6.17-6.982 1.32-7.653"/>
     <path id="Fill-3" fill="#138FE2" d="m6.7607 68.084c3.3783-3.743 6.1283-7.978 8.1793-12.585l0.105-0.239c2.06-4.695 3.348-9.669 3.828-14.784 1.36-8.734-9.3304-9.081-9.7638-1.821-0.4766 8.572-2.6673 16.774-7.9971 24.124-3.6045 4.724 2.431 9.011 5.6486 5.305"/>
     <path id="Fill-5" fill="#F9AF2C" d="m158.43 21.284c-0.04-0.014-0.09-0.026-0.14-0.038 0 0-0.77-0.174-2.12-0.48-1.35-0.305-3.29-0.726-5.62-1.165-1.17-0.232-2.44-0.451-3.79-0.675-1.35-0.233-2.78-0.431-4.25-0.644-1.49-0.19-3.02-0.391-4.58-0.539-1.56-0.177-3.16-0.284-4.75-0.405-1.6-0.097-3.2-0.185-4.77-0.223-1.57-0.063-3.12-0.05-4.63-0.058-0.11 0.002-0.22 0.003-0.33 0.004 0.66 2.195 0.86 4.545 0.53 6.929 0.05-0.004 0.1-0.007 0.15-0.011 1.42-0.08 2.88-0.183 4.37-0.213 1.49-0.058 3.01-0.067 4.52-0.068 1.52 0.022 3.04 0.029 4.54 0.106 1.49 0.051 2.97 0.152 4.39 0.246 1.43 0.119 2.81 0.222 4.12 0.368 1.3 0.137 2.54 0.271 3.68 0.426 2.28 0.285 4.18 0.578 5.51 0.794 1.33 0.217 2.09 0.34 2.09 0.34l0.05 0.009c1.27 0.204 2.49-0.593 2.76-1.841 0.28-1.252-0.49-2.501-1.73-2.862"/>
     <path id="Fill-7" fill="#138FE2" d="m123.45 17.062c-1.55-5.102-5.62-9.3575-11.52-11.222-22.592-7.1434-52.749-8.2131-72.314 0.5567-8.122 3.6413-14.869 10.412-17.531 19.658-4.647 16.141 4.615 33.007 20.689 37.673 10.177 2.955 20.595 0.401 28.129-6.131 9.651-8.367 17.383-17.513 37.357-19.295 8.03-0.716 13.21-4.972 15.21-11.921 0.23-0.797 0.4-1.596 0.51-2.391 0.33-2.384 0.13-4.733-0.53-6.928"/>
    </g>
    <g id="Group-12" transform="translate(20.826 3.9268)">
     <mask id="mask-2" fill="white">
      <use xlink:href="#path-1"/>
     </mask>
     <path id="Fill-10" mask="url(#mask-2)" d="m19.231 3.5263c-8.868 3.885-16.236 11.112-19.143 20.979h0.000109c-5.0743 17.225 5.0399 35.225 22.591 40.204 11.113 3.154 21.835-0.365 30.249-7.101 11.234-8.992 16.711-18.904 41.492-21.992 8.73-1.088 14.19-3.346 16.37-10.763 0.25-0.85 0.44-1.704 0.56-2.551 0.36-2.546 0.15-5.053-0.58-7.395-1.68-5.4438-6.13-9.9852-12.573-11.976-12.533-3.8721-27.2-6.072-41.397-6.072-13.75-0.0008-27.058 2.0624-37.569 6.6673"/>
    </g>
    <g id="Group-19" transform="translate(98.522 .70944)">
     <path id="Fill-13" fill="#fff" d="m18.485 27.594c-1.401 4.864-6.464 7.668-11.308 6.262-4.8454-1.406-7.6376-6.491-6.2367-11.356s6.464-7.669 11.309-6.262c4.845 1.406 7.637 6.491 6.236 11.356"/>
     <path id="Fill-15" fill="#333" d="m15.994 22.662c0.01 0.091 0.027 0.18 0.027 0.274 0 1.288-1.039 2.333-2.322 2.333s-2.323-1.045-2.323-2.333c0-1.236 0.961-2.237 2.172-2.316-0.098-0.036-0.195-0.073-0.296-0.102-2.491-0.724-5.0941 0.717-5.8142 3.219-0.7209 2.502 0.7153 5.116 3.2062 5.84 2.491 0.722 5.095-0.719 5.815-3.221 0.373-1.294 0.165-2.617-0.465-3.694"/>
     <path id="Fill-17" fill="#138FE2" d="m29.602 0.78062c-0.269-0.10698-0.561-0.0547-0.714 0.18017-0.163 0.25181-0.123 0.58481 0.159 0.75371 4.902 2.9431 5.862 10.516 0.02 13.212 0.015-0.073 0.029-0.151 0.042-0.231 0.111-0.641 0.161-1.305 0.15-1.973-0.009-0.77-0.11-1.55-0.3-2.317-0.166-0.7267-0.464-1.5166-0.911-2.4158-0.811-1.554-2.022-2.9866-3.5-4.14-0.618-0.4987-1.341-0.9676-2.274-1.476-0.856-0.4657-1.728-0.7955-2.395-1.0311-0.877-0.284-1.646-0.47783-2.349-0.59365-0.674-0.12146-1.38-0.19385-2.16-0.222-0.609-0.01448-1.225 0.00804-1.833 0.06434-0.572 0.06355-1.033 0.13513-1.402 0.21879-0.282 0.04906-0.496 0.10939-0.667 0.15845-0.073 0.02092-0.139 0.03937-0.204 0.05547l-0.296 0.0805c-0.322 0.0892-0.52 0.415-0.449 0.7432 0.036 0.1649 0.132 0.3064 0.274 0.3973 0.141 0.0917 0.309 0.1223 0.474 0.0869l0.294-0.0635c0.061-0.0113 0.133-0.0282 0.213-0.0459 0.17-0.0386 0.381-0.0869 0.617-0.111 0.319-0.0547 0.729-0.0965 1.249-0.1271 0.547-0.0209 1.102-0.0112 1.649 0.0306 0.701 0.0627 1.332 0.1625 1.929 0.3032 0.616 0.1344 1.295 0.3451 2.074 0.6427 0.588 0.2445 1.355 0.5832 2.075 1.0272 0.805 0.4978 1.415 0.941 1.92 1.3955 1.179 1.0255 2.154 2.3045 2.744 3.5978 0.326 0.7626 0.521 1.3761 0.615 1.9371 0.116 0.6 0.161 1.2 0.135 1.786-0.018 0.514-0.084 1.019-0.196 1.504-0.091 0.436-0.219 0.813-0.331 1.135-0.064 0.197-0.14 0.366-0.202 0.501-0.035 0.08-0.067 0.149-0.087 0.204l-0.147 0.341c-0.008 0.018-0.015 0.038-0.023 0.057-0.005 0.013-0.008 0.027-0.009 0.036-0.02 0.057-0.037 0.119-0.054 0.206-0.003 0.015-0.006 0.028-0.008 0.041-0.011 0.073-0.016 0.151-0.014 0.254 0.005 0.138 0.024 0.251 0.056 0.358 0.182 0.579 0.717 0.949 1.292 0.95 0.135 0 0.291-0.023 0.406-0.062 10.763-3.356 8.268-14.783 2.138-17.448"/>
    </g>
   </g>
  </g>
 </g>
</svg>
